Coordinates
version=1
nRows=29
nColumns=24
inDegrees=yes

Units are S.I. units (second, meters, Newtons, ...)
Angles are in degrees.

endheader
time	pelvis_tilt	pelvis_list	pelvis_rotation	pelvis_tx	pelvis_ty	pelvis_tz	hip_flexion_r	hip_adduction_r	hip_rotation_r	knee_angle_r	ankle_angle_r	subtalar_angle_r	mtp_angle_r	hip_flexion_l	hip_adduction_l	hip_rotation_l	knee_angle_l	ankle_angle_l	subtalar_angle_l	mtp_angle_l	lumbar_extension	lumbar_bending	lumbar_rotation
      5.27000000	      6.98937458	      1.93120137	    -10.28460753	      0.49493493	      0.81838218	     -0.12787560	     -0.59154024	     -3.13765204	      4.11687655	    -62.33910648	     -3.36932001	     -4.21774399	      0.00000000	      1.58809141	      7.63833979	     -0.87961625	    -15.18707365	     13.10333402	    -10.97703560	      0.00000000	    -22.58366921	     -3.78019033	     11.62131374
      5.28000000	      6.84612218	      1.43197087	     -9.75138578	      0.50638523	      0.81993318	     -0.12887436	      1.37252460	     -2.24416364	      3.42964597	    -63.27166854	     -1.13481080	     -4.94124049	      0.00000000	      0.24642082	      7.30399380	     -0.11037877	    -14.22638519	     13.22001709	    -11.10747004	      0.00000000	    -22.60509683	     -2.93345363	     10.70256354
      5.29000000	      6.68128676	      0.91744606	     -9.18051566	      0.51769060	      0.82135751	     -0.12984093	      3.32330823	     -1.36764723	      2.68013113	    -63.80603659	      0.98167445	     -5.40654137	      0.00000000	     -1.08496928	      6.89989179	      0.58948481	    -13.20722813	     13.33055158	    -11.11717821	      0.00000000	    -22.62486301	     -2.06721579	      9.77172895
      5.30000000	      6.49801086	      0.41383497	     -8.58510878	      0.52885177	      0.82259492	     -0.13075986	      5.25867003	     -0.53221174	      1.90655036	    -63.96817540	      2.92675419	     -5.65260950	      0.00000000	     -2.39361480	      6.45728887	      1.21301966	    -12.14715517	     13.43836044	    -11.02145770	      0.00000000	    -22.64256120	     -1.21768947	      8.83602627
      5.31000000	      6.30187520	     -0.04853189	     -7.96816907	      0.53987655	      0.82359280	     -0.13165362	      7.17150647	      0.22728148	      1.12703321	    -63.78170793	      4.67898083	     -5.74356093	      0.00000000	     -3.66873939	      6.01675597	      1.77055188	    -11.06948260	     13.55428392	    -10.83694831	      0.00000000	    -22.65460943	     -0.41929018	      7.88182798
      5.32000000	      6.09786789	     -0.45754816	     -7.33267918	      0.55077291	      0.82433391	     -0.13250671	      9.04537525	      0.90358484	      0.37228562	    -63.25198070	      6.22675374	     -5.73518092	      0.00000000	     -4.90321519	      5.59464394	      2.27588719	     -9.99839343	     13.68267941	    -10.58030163	      0.00000000	    -22.67288275	      0.31313697	      6.92216111
      5.33000000	      5.89275435	     -0.80769370	     -6.67609451	      0.56153310	      0.82481611	     -0.13331712	     10.86290359	      1.49247667	     -0.34128690	    -62.38357336	      7.55739117	     -5.69396084	      0.00000000	     -6.09336602	      5.20190999	      2.75684788	     -8.95704430	     13.80134682	    -10.29317280	      0.00000000	    -22.70595434	      0.97329154	      5.92999149
      5.34000000	      5.67546852	     -1.11933377	     -6.08007425	      0.57220061	      0.82501116	     -0.13402283	     12.61733439	      2.02730266	     -0.93551261	    -61.16560724	      8.71053037	     -5.65213600	      0.00000000	     -7.23264535	      4.83067335	      3.11746410	     -7.95299704	     13.97469777	     -9.97360679	      0.00000000	    -22.73740006	      1.56182547	      5.07210744
      5.35000000	      5.48793343	     -1.29516984	     -5.33052199	      0.58277792	      0.82501048	     -0.13483448	     14.25272234	      2.34798846	     -1.60057809	    -59.60299323	      9.55540360	     -5.69870044	      0.00000000	     -8.35340792	      4.55797355	      3.65935153	     -6.99123680	     14.07769051	     -9.58977505	      0.00000000	    -22.80575492	      2.03065026	      3.93392728
      5.36000000	      5.28715750	     -1.43609953	     -4.64798820	      0.59330961	      0.82474256	     -0.13554190	     15.78645068	      2.61255177	     -2.13980685	    -57.67043296	     10.21756487	     -5.80379580	      0.00000000	     -9.43032444	      4.30924262	      4.10260682	     -6.06822174	     14.19982336	     -9.23420859	      0.00000000	    -22.87049748	      2.43343905	      2.94906562
      5.37000000	      5.07453244	     -1.50979947	     -3.96802158	      0.60380722	      0.82424971	     -0.13617009	     17.18991856	      2.77500385	     -2.60895898	    -55.34273417	     10.67345731	     -5.99253490	      0.00000000	    -10.44768175	      4.10792425	      4.48301214	     -5.21417347	     14.30141736	     -8.86543875	      0.00000000	    -22.93008219	      2.74008294	      1.94892326
      5.38000000	      4.88519537	     -1.47441469	     -3.24774045	      0.61429676	      0.82356228	     -0.13680890	     18.41987924	      2.76093171	     -3.06890724	    -52.63880588	     10.86307836	     -6.27296765	      0.00000000	    -11.45901042	      3.99364896	      4.91516322	     -4.40517553	     14.38537667	     -8.44680066	      0.00000000	    -23.01454519	      2.92307047	      0.86519562
      5.39000000	      4.70359573	     -1.35932306	     -2.53600264	      0.62484178	      0.82266781	     -0.13739322	     19.46073733	      2.61874023	     -3.49233130	    -49.53684374	     10.86675454	     -6.55405910	      0.00000000	    -12.46477661	      3.94203993	      5.34451286	     -3.62826778	     14.45972905	     -8.01097334	      0.00000000	    -23.09935463	      3.01365018	     -0.20908494
      5.40000000	      4.51762232	     -1.17133813	     -1.81660104	      0.63548644	      0.82158714	     -0.13789681	     20.29773124	      2.36397023	     -3.89544678	    -46.01904238	     10.68434338	     -6.77158232	      0.00000000	    -13.44088717	      3.94111056	      5.74966050	     -2.91420631	     14.51153093	     -7.55432249	      0.00000000	    -23.16272440	      2.98966137	     -1.30325528
      5.41000000	      4.34110490	     -0.89965780	     -1.07388535	      0.64629168	      0.82032927	     -0.13838581	     20.90345360	      1.98091454	     -4.30397795	    -42.10305790	     10.33357709	     -6.84662930	      0.00000000	    -14.40968563	      4.00270540	      6.16609897	     -2.26082785	     14.56355610	     -7.06961737	      0.00000000	    -23.18820468	      2.87676973	     -2.41709434
      5.42000000	      4.16996073	     -0.56008250	     -0.31797031	      0.65727612	      0.81889497	     -0.13880446	     21.27948537	      1.50067343	     -4.74708071	    -37.81565919	      9.85600545	     -6.68948972	      0.00000000	    -15.37129403	      4.10555620	      6.59841225	     -1.66954711	     14.60912510	     -6.56495020	      0.00000000	    -23.19520895	      2.65931999	     -3.55942654
      5.43000000	      4.00356517	     -0.14256399	      0.44852623	      0.66846979	      0.81728912	     -0.13915628	     21.43845521	      0.92870271	     -5.21778381	    -33.22100299	      9.27952451	     -6.20334434	      0.00000000	    -16.32175712	      4.26173845	      7.04059984	     -1.15386521	     14.64529653	     -6.05052427	      0.00000000	    -23.16863595	      2.32895891	     -4.71911073
      5.44000000	      3.84442257	      0.35270517	      1.22207527	      0.67990181	      0.81552255	     -0.13944366	     21.40447970	      0.27779251	     -5.72251797	    -28.41183303	      8.65139429	     -5.31156267	      0.00000000	    -17.26594135	      4.46901372	      7.50759437	     -0.72054822	     14.66921062	     -5.52353940	      0.00000000	    -23.10729227	      1.89274394	     -5.88451843
      5.45000000	      3.70370592	      0.90423929	      1.99370495	      0.69161710	      0.81361407	     -0.13964551	     21.20052056	     -0.41450397	     -6.26287786	    -23.50721643	      8.04075015	     -3.95332528	      0.00000000	    -18.22144391	      4.70326007	      7.99705264	     -0.36880632	     14.68911007	     -4.98977799	      0.00000000	    -23.02044694	      1.36407482	     -7.02420279
      5.46000000	      3.56497583	      1.51451976	      2.75206266	      0.70358032	      0.81158215	     -0.13973107	     20.89682771	     -1.13433284	     -6.75803306	    -18.65649635	      7.44558913	     -2.17479053	      0.00000000	    -19.15732133	      4.96706177	      8.49934457	     -0.12037167	     14.69848942	     -4.43860675	      0.00000000	    -22.91212680	      0.72213429	     -8.13386862
      5.47000000	      3.45136229	      2.10246089	      3.49521685	      0.71589284	      0.80947574	     -0.13976048	     20.49084628	     -1.80447303	     -7.20005798	    -13.98865833	      6.94257731	      0.00173339	      0.00000000	    -20.09871104	      5.18112441	      8.98677128	      0.01823895	     14.71926572	     -3.87148892	      0.00000000	    -22.77486357	      0.09596770	     -9.17056083
      5.48000000	      3.32508213	      2.76313305	      4.18988031	      0.72835835	      0.80730731	     -0.13956635	     20.08408033	     -2.49706625	     -7.38596130	     -9.67544381	      6.41733976	      2.16308911	      0.00000000	    -20.97873853	      5.44123475	      9.47698332	      0.01924938	     14.70257201	     -3.22155990	      0.00000000	    -22.63707906	     -0.70163325	    -10.11881337
      5.49000000	      3.22479367	      3.32951321	      4.85431995	      0.74114863	      0.80517061	     -0.13936228	     19.63717776	     -3.08805172	     -7.41138494	     -5.83790633	      5.98926057	      4.33358950	      0.00000000	    -21.83192819	      5.59160879	      9.88959185	     -0.12426985	     14.72439672	     -2.49522906	      0.00000000	    -22.48815241	     -1.38274651	    -10.95375270
      5.50000000	      3.10307572	      3.86945723	      5.36554165	      0.75404546	      0.80302619	     -0.13901254	     19.29236972	     -3.62515198	     -6.94231013	     -2.65546664	      5.57552681	      6.07402014	      0.00000000	    -22.58517896	      5.75871373	     10.22778275	     -0.42365987	     14.69821140	     -1.86383055	      0.00000000	    -22.33469729	     -2.07600435	    -11.63371567
      5.51000000	      3.12386516	      4.15982672	      5.99266218	      0.76742372	      0.80127040	     -0.13869301	     18.83095875	     -3.93035031	     -6.96026300	     -0.18666134	      5.40814199	      7.66414497	      0.00000000	    -23.37751554	      5.58525466	     10.34633280	     -0.93622348	     14.78289629	     -0.72675157	      0.00000000	    -22.24337263	     -2.46731455	    -12.21715284
      5.52000000	      3.13340088	      4.38018792	      6.44302709	      0.78086855	      0.79962039	     -0.13823388	     18.54036269	     -4.13579276	     -6.59961480	      1.40808465	      5.31479152	      8.64869444	      0.00000000	    -24.02924724	      5.41454240	     10.25488633	     -1.65505214	     14.81077953	      0.38021610	      0.00000000	    -22.16044841	     -2.81400672	    -12.58542185
      5.53000000	      3.15099827	      4.51969347	      6.80085919	      0.79445792	      0.79817341	     -0.13768099	     18.38874902	     -4.23818184	     -6.17284300	      2.12271779	      5.29641809	      9.08177783	      0.00000000	    -24.59713094	      5.19376164	     10.31186241	     -2.51473987	     14.57484411	      1.13736669	      0.00000000	    -22.06313155	     -3.09239038	    -12.80224857
      5.54000000	      3.29605808	      4.36898208	      7.10920642	      0.80849984	      0.79710206	     -0.13698151	     18.20190046	     -3.99247409	     -5.90472093	      2.06088013	      5.17072931	      8.92866612	      0.00000000	    -25.12877795	      4.68152137	      9.74833349	     -3.63040755	     14.44181822	      2.52414752	      0.00000000	    -22.00939678	     -3.04661444	    -12.84042965
      5.55000000	      3.39288804	      4.12001524	      7.36810781	      0.82276670	      0.79612985	     -0.13630183	     18.18560729	     -3.64526854	     -5.56978885	      1.25053895	      4.95910269	      8.25337007	      0.00000000	    -25.51171674	      4.11591727	      9.47840406	     -4.89955057	     14.05012949	      3.39027716	      0.00000000	    -21.82740091	     -2.88193475	    -12.77499869
